<svg xmlns="http://www.w3.org/2000/svg" viewBox="0 0 64 64">
  <defs>
    <linearGradient id="g" x1="10" y1="6" x2="54" y2="58" gradientUnits="userSpaceOnUse">
      <stop offset="0" stop-color="#0ea5a4"/>
      <stop offset="1" stop-color="#fb7185"/>
    </linearGradient>
  </defs>
  <rect x="6" y="6" width="52" height="52" rx="14" fill="url(#g)"/>
  <path d="M32 16c-9 0-15 7.8-15 16s6 16 15 16 15-7.8 15-16-6-16-15-16z"
    fill="rgba(255,255,255,0.92)"/>
  <path d="M32 20c-4.2 2.2-6.8 6.4-6.8 12 0 5.6 2.6 9.8 6.8 12 4.2-2.2 6.8-6.4 6.8-12 0-5.6-2.6-9.8-6.8-12z"
    fill="rgba(15,118,110,0.18)"/>
  <path d="M34.8 21.2c-3.8 3.2-6.6 7.6-6.6 11.3 0 3.9 2 7.6 6.6 10.5"
    fill="none" stroke="rgba(31,41,55,0.38)" stroke-width="2.2" stroke-linecap="round"/>
</svg>
